<svg width="574" height="414" viewBox="0 0 574 414" fill="none" xmlns="http://www.w3.org/2000/svg">
<g clip-path="url(#clip0_1480_10583)">
<path opacity="0.3" d="M105.283 271.619L122.144 404.69L-184.339 345.783V235.413H-178.202L-164.812 196.881L-160.349 203.154H-135.8C-130.444 203.154 -125.758 207.335 -124.084 209.426L-96.7459 203.154L-83.3558 235.413L-76.6612 225.556C-73.4995 228.842 -66.507 235.413 -63.829 235.413C-61.1509 235.413 -58.9936 197.18 -58.2497 178.063H-50.4389L-37.6067 240.79L-21.3563 227.747H-12.3642L-6.92122 249.751L3.67928 191.903L15.3956 222.37L25.4381 227.747L42.7335 222.37L49.8317 262.31L60.3225 249.751L68.5653 262.31L79.0562 249.751L91.8303 281.115L105.283 271.619Z" fill="url(#paint0_linear_1480_10583)"/>
<path opacity="0.3" d="M562.606 154.369L573.251 144.917V351.128L243.538 357.595C243.538 343.848 252.919 293.099 257.401 271.619H269.016L269.391 291.333L281.38 296.81C281.753 275.616 282.276 228.391 281.38 220.143C280.484 211.894 292.827 184.841 298.99 171.952L313.977 154.429L325.06 163.82V132.888H332.904L338.507 106.253L353.073 113.127L360.356 84.7726L370.441 90.7871H378.284L385.567 113.127L390.609 84.7726L400.694 100.239L410.779 61.574L427.503 18.6189C429.744 19.4781 435.827 23.5361 437.619 26.2856C439.411 29.0351 444.58 34.8964 447.755 38.3332L448.11 15.8808C450.724 27.337 456.047 52.6382 457.839 61.574C461.223 67.357 463.664 56.1845 465.345 48.738L470.725 84.7726L475.768 40.0938L485.852 2.67578H496.497C498.364 21.5783 502.1 62.7769 502.1 67.5885C502.1 70.0951 511.257 64.7952 515.926 60.7856L525.069 84.7726L530.672 163.82L546.919 144.917L559.245 163.82L562.606 154.369Z" fill="url(#paint1_linear_1480_10583)"/>
<path opacity="0.3" d="M136.674 250.329L126.548 355.393L243.264 358.794C241.488 348.592 237.295 327.677 234.737 325.637C232.179 323.596 224.433 332.722 220.88 337.539V309.483L200.628 325.637L196.364 290.289H190.502L182.508 307.292H167.586L160.657 271.584H152.13L142.753 250.329L137.424 237.576L136.674 250.329Z" fill="url(#paint2_linear_1480_10583)"/>
<path d="M573.251 145.131L562.628 154.74L559.273 164.349L546.973 145.131L530.758 164.349L525.167 83.9827L516.222 60.3968C511.562 64.4734 502.244 71.4036 502.244 66.5117C502.244 61.6198 498.517 21.9604 496.653 2.74219H486.03L475.966 38.5579L470.934 83.9827L465.343 49.0406C463.665 56.6114 459.864 69.4817 458.075 60.3968C456.286 51.3118 450.62 25.7458 448.011 14.0984V39.4315C444.843 35.9373 438.059 28.25 436.269 25.4546C434.481 22.6592 429.56 20.2133 427.324 19.3397L411.11 60.3968L401.045 99.7067L390.982 83.9827L385.95 112.81L378.681 90.0976H370.854L360.79 83.9827L353.522 112.81L338.985 105.821L333.394 132.901H325.566V164.349L313.825 154.74L298.729 172.211C292.579 185.315 280.502 213.618 281.397 222.004C282.291 230.39 281.77 275.582 281.397 297.129L269.097 291.016V271.796H257.355C252.882 293.635 243.937 340.807 243.937 354.784C243.937 372.255 237.787 326.83 233.314 325.083C229.736 323.686 223.623 332.654 221.013 337.313V307.612L201.445 325.083L196.972 291.016H190.262L182.435 307.612H167.339L161.748 271.796H152.802L137.147 236.854V250.831L122.405 408.517L105.278 271.796L92.4186 281.406L79 250.831L68.3771 261.314L60.5496 250.831L49.9265 261.314L43.2172 222.004L25.8849 227.245L15.821 222.004L4.07978 192.303L-6.5433 250.831L-12.1343 227.245H-20.5209L-37.2941 242.096L-50.1536 180.947H-57.9811C-58.7266 199.583 -60.8885 236.854 -63.5722 236.854C-66.2559 236.854 -73.2634 230.448 -76.4319 227.245L-83.1407 236.854L-96.5593 205.406L-123.955 211.521C-125.633 209.483 -130.329 205.406 -135.697 205.406C-141.065 205.406 -154.334 205.406 -160.298 205.406L-164.771 199.291L-178.189 236.854H-184.339" stroke="url(#paint3_linear_1480_10583)"/>
</g>
<defs>
<linearGradient id="paint0_linear_1480_10583" x1="-31.0978" y1="178.063" x2="-31.0978" y2="404.69" gradientUnits="userSpaceOnUse">
<stop stop-color="#00D1FF" stop-opacity="0.79"/>
<stop offset="1" stop-color="#ED1EFF" stop-opacity="0"/>
</linearGradient>
<linearGradient id="paint1_linear_1480_10583" x1="408.394" y1="2.67578" x2="408.394" y2="357.595" gradientUnits="userSpaceOnUse">
<stop stop-color="#00D1FF" stop-opacity="0.79"/>
<stop offset="1" stop-color="#ED1EFF" stop-opacity="0"/>
</linearGradient>
<linearGradient id="paint2_linear_1480_10583" x1="184.906" y1="239.767" x2="184.906" y2="358.794" gradientUnits="userSpaceOnUse">
<stop stop-color="#00D1FF" stop-opacity="0.79"/>
<stop offset="1" stop-color="#ED1EFF" stop-opacity="0"/>
</linearGradient>
<linearGradient id="paint3_linear_1480_10583" x1="194.456" y1="2.74219" x2="194.456" y2="408.517" gradientUnits="userSpaceOnUse">
<stop stop-color="#ED1EFF"/>
<stop offset="1" stop-color="#00D1FF"/>
</linearGradient>
<clipPath id="clip0_1480_10583">
<rect width="574" height="414" fill="white"/>
</clipPath>
</defs>
</svg>
